<mxfile host="app.diagrams.net" agent="Mozilla/5.0 (Windows NT 10.0; Win64; x64) AppleWebKit/537.36 (KHTML, like Gecko) Chrome/136.0.0.0 Safari/537.36 Edg/136.0.0.0" version="26.2.15">
  <diagram name="第 1 页" id="ZPc9yOP7kBuwx49OAoAH">
    <mxGraphModel dx="1695" dy="1001" grid="1" gridSize="10" guides="1" tooltips="1" connect="1" arrows="1" fold="1" page="1" pageScale="1" pageWidth="1200" pageHeight="1600" math="0" shadow="0">
      <root>
        <mxCell id="0" />
        <mxCell id="1" parent="0" />
        <mxCell id="neRdQv5GDAgFnM3jSujK-1" value="开始" style="whiteSpace=wrap;strokeWidth=2;fontSize=19;" parent="1" vertex="1">
          <mxGeometry x="456" y="20" width="92" height="54" as="geometry" />
        </mxCell>
        <mxCell id="neRdQv5GDAgFnM3jSujK-2" value="用户填写用户名、密码、确认密码和邮箱地址" style="whiteSpace=wrap;strokeWidth=2;fontSize=19;" parent="1" vertex="1">
          <mxGeometry x="372" y="124" width="260" height="78" as="geometry" />
        </mxCell>
        <mxCell id="neRdQv5GDAgFnM3jSujK-3" value="后台接收注册信息" style="whiteSpace=wrap;strokeWidth=2;fontSize=19;" parent="1" vertex="1">
          <mxGeometry x="408" y="252" width="188" height="54" as="geometry" />
        </mxCell>
        <mxCell id="neRdQv5GDAgFnM3jSujK-4" value="用户名是否已存在" style="rhombus;strokeWidth=2;whiteSpace=wrap;fontSize=19;" parent="1" vertex="1">
          <mxGeometry x="417.5" y="356" width="169" height="164" as="geometry" />
        </mxCell>
        <mxCell id="neRdQv5GDAgFnM3jSujK-24" style="edgeStyle=orthogonalEdgeStyle;rounded=0;orthogonalLoop=1;jettySize=auto;html=1;exitX=0.5;exitY=1;exitDx=0;exitDy=0;entryX=0;entryY=0.5;entryDx=0;entryDy=0;fontSize=19;" parent="1" source="neRdQv5GDAgFnM3jSujK-5" target="neRdQv5GDAgFnM3jSujK-2" edge="1">
          <mxGeometry relative="1" as="geometry">
            <Array as="points">
              <mxPoint x="345" y="666" />
              <mxPoint x="190" y="666" />
              <mxPoint x="190" y="163" />
            </Array>
          </mxGeometry>
        </mxCell>
        <mxCell id="neRdQv5GDAgFnM3jSujK-5" value="返回提示信息，要求更换用户名" style="whiteSpace=wrap;strokeWidth=2;fontSize=19;" parent="1" vertex="1">
          <mxGeometry x="266" y="596" width="190" height="50" as="geometry" />
        </mxCell>
        <mxCell id="neRdQv5GDAgFnM3jSujK-6" value="邮箱是否已存在" style="rhombus;strokeWidth=2;whiteSpace=wrap;fontSize=19;" parent="1" vertex="1">
          <mxGeometry x="548" y="538" width="166" height="166" as="geometry" />
        </mxCell>
        <mxCell id="neRdQv5GDAgFnM3jSujK-25" style="edgeStyle=orthogonalEdgeStyle;rounded=0;orthogonalLoop=1;jettySize=auto;html=1;exitX=0.5;exitY=1;exitDx=0;exitDy=0;entryX=0;entryY=0.5;entryDx=0;entryDy=0;fontSize=19;" parent="1" source="neRdQv5GDAgFnM3jSujK-7" target="neRdQv5GDAgFnM3jSujK-2" edge="1">
          <mxGeometry relative="1" as="geometry">
            <Array as="points">
              <mxPoint x="487" y="840" />
              <mxPoint x="190" y="840" />
              <mxPoint x="190" y="163" />
            </Array>
          </mxGeometry>
        </mxCell>
        <mxCell id="neRdQv5GDAgFnM3jSujK-7" value="返回提示信息，要求更换邮箱" style="whiteSpace=wrap;strokeWidth=2;fontSize=19;" parent="1" vertex="1">
          <mxGeometry x="390" y="772" width="194" height="48" as="geometry" />
        </mxCell>
        <mxCell id="neRdQv5GDAgFnM3jSujK-8" value="密码与确认密码&#xa;是否一致" style="rhombus;strokeWidth=2;whiteSpace=wrap;fontSize=19;" parent="1" vertex="1">
          <mxGeometry x="690" y="715" width="174" height="170" as="geometry" />
        </mxCell>
        <mxCell id="neRdQv5GDAgFnM3jSujK-26" style="edgeStyle=orthogonalEdgeStyle;rounded=0;orthogonalLoop=1;jettySize=auto;html=1;exitX=0.5;exitY=1;exitDx=0;exitDy=0;entryX=0;entryY=0.5;entryDx=0;entryDy=0;fontSize=19;" parent="1" source="neRdQv5GDAgFnM3jSujK-9" target="neRdQv5GDAgFnM3jSujK-2" edge="1">
          <mxGeometry relative="1" as="geometry">
            <Array as="points">
              <mxPoint x="627" y="1105" />
              <mxPoint x="190" y="1105" />
              <mxPoint x="190" y="163" />
            </Array>
          </mxGeometry>
        </mxCell>
        <mxCell id="neRdQv5GDAgFnM3jSujK-9" value="提示用户重新输入密码" style="whiteSpace=wrap;strokeWidth=2;fontSize=19;" parent="1" vertex="1">
          <mxGeometry x="540" y="1040" width="174" height="45" as="geometry" />
        </mxCell>
        <mxCell id="neRdQv5GDAgFnM3jSujK-10" value="使用bcrypt算法对密码进行加密" style="whiteSpace=wrap;strokeWidth=2;fontSize=19;" parent="1" vertex="1">
          <mxGeometry x="829" y="1040" width="194" height="47" as="geometry" />
        </mxCell>
        <mxCell id="neRdQv5GDAgFnM3jSujK-11" value="将加密后的密码及用户信息存入Users表" style="whiteSpace=wrap;strokeWidth=2;fontSize=19;" parent="1" vertex="1">
          <mxGeometry x="814" y="1130" width="224" height="59" as="geometry" />
        </mxCell>
        <mxCell id="neRdQv5GDAgFnM3jSujK-12" value="结束" style="whiteSpace=wrap;strokeWidth=2;fontSize=19;" parent="1" vertex="1">
          <mxGeometry x="880" y="1230" width="92" height="54" as="geometry" />
        </mxCell>
        <mxCell id="neRdQv5GDAgFnM3jSujK-13" value="" style="startArrow=none;endArrow=block;exitX=0.49;exitY=1;entryX=0.5;entryY=0;rounded=0;edgeStyle=orthogonalEdgeStyle;fontSize=19;" parent="1" source="neRdQv5GDAgFnM3jSujK-1" target="neRdQv5GDAgFnM3jSujK-2" edge="1">
          <mxGeometry relative="1" as="geometry" />
        </mxCell>
        <mxCell id="neRdQv5GDAgFnM3jSujK-14" value="" style="startArrow=none;endArrow=block;exitX=0.5;exitY=1;entryX=0.5;entryY=0;rounded=0;edgeStyle=orthogonalEdgeStyle;fontSize=19;" parent="1" source="neRdQv5GDAgFnM3jSujK-2" target="neRdQv5GDAgFnM3jSujK-3" edge="1">
          <mxGeometry relative="1" as="geometry" />
        </mxCell>
        <mxCell id="neRdQv5GDAgFnM3jSujK-15" value="" style="startArrow=none;endArrow=block;exitX=0.5;exitY=1;entryX=0.5;entryY=0;rounded=0;edgeStyle=orthogonalEdgeStyle;fontSize=19;" parent="1" source="neRdQv5GDAgFnM3jSujK-3" target="neRdQv5GDAgFnM3jSujK-4" edge="1">
          <mxGeometry relative="1" as="geometry" />
        </mxCell>
        <mxCell id="neRdQv5GDAgFnM3jSujK-16" value="是" style="startArrow=none;endArrow=block;exitX=0;exitY=0.5;entryX=0.5;entryY=0;rounded=0;edgeStyle=orthogonalEdgeStyle;exitDx=0;exitDy=0;fontSize=19;" parent="1" source="neRdQv5GDAgFnM3jSujK-4" target="neRdQv5GDAgFnM3jSujK-5" edge="1">
          <mxGeometry relative="1" as="geometry" />
        </mxCell>
        <mxCell id="neRdQv5GDAgFnM3jSujK-17" value="否" style="startArrow=none;endArrow=block;exitX=1;exitY=0.5;entryX=0.5;entryY=0;rounded=0;edgeStyle=orthogonalEdgeStyle;exitDx=0;exitDy=0;fontSize=19;" parent="1" source="neRdQv5GDAgFnM3jSujK-4" target="neRdQv5GDAgFnM3jSujK-6" edge="1">
          <mxGeometry relative="1" as="geometry" />
        </mxCell>
        <mxCell id="neRdQv5GDAgFnM3jSujK-18" value="是" style="startArrow=none;endArrow=block;exitX=0;exitY=0.5;entryX=0.5;entryY=0;rounded=0;edgeStyle=orthogonalEdgeStyle;exitDx=0;exitDy=0;fontSize=19;" parent="1" source="neRdQv5GDAgFnM3jSujK-6" target="neRdQv5GDAgFnM3jSujK-7" edge="1">
          <mxGeometry relative="1" as="geometry" />
        </mxCell>
        <mxCell id="neRdQv5GDAgFnM3jSujK-19" value="否" style="startArrow=none;endArrow=block;exitX=1;exitY=0.5;entryX=0.5;entryY=0;rounded=0;edgeStyle=orthogonalEdgeStyle;exitDx=0;exitDy=0;fontSize=19;" parent="1" source="neRdQv5GDAgFnM3jSujK-6" target="neRdQv5GDAgFnM3jSujK-8" edge="1">
          <mxGeometry relative="1" as="geometry" />
        </mxCell>
        <mxCell id="neRdQv5GDAgFnM3jSujK-20" value="否" style="startArrow=none;endArrow=block;exitX=0;exitY=0.5;entryX=0.5;entryY=0;rounded=0;edgeStyle=orthogonalEdgeStyle;exitDx=0;exitDy=0;fontSize=19;" parent="1" source="neRdQv5GDAgFnM3jSujK-8" target="neRdQv5GDAgFnM3jSujK-9" edge="1">
          <mxGeometry relative="1" as="geometry" />
        </mxCell>
        <mxCell id="neRdQv5GDAgFnM3jSujK-21" value="是" style="startArrow=none;endArrow=block;exitX=1;exitY=0.5;entryX=0.5;entryY=0;rounded=0;edgeStyle=orthogonalEdgeStyle;exitDx=0;exitDy=0;fontSize=19;" parent="1" source="neRdQv5GDAgFnM3jSujK-8" target="neRdQv5GDAgFnM3jSujK-10" edge="1">
          <mxGeometry relative="1" as="geometry" />
        </mxCell>
        <mxCell id="neRdQv5GDAgFnM3jSujK-22" value="" style="startArrow=none;endArrow=block;exitX=0.5;exitY=1;entryX=0.5;entryY=0;rounded=0;edgeStyle=orthogonalEdgeStyle;fontSize=19;" parent="1" source="neRdQv5GDAgFnM3jSujK-10" target="neRdQv5GDAgFnM3jSujK-11" edge="1">
          <mxGeometry relative="1" as="geometry" />
        </mxCell>
        <mxCell id="neRdQv5GDAgFnM3jSujK-23" value="" style="startArrow=none;endArrow=block;exitX=0.5;exitY=1;entryX=0.49;entryY=0;rounded=0;edgeStyle=orthogonalEdgeStyle;fontSize=19;" parent="1" source="neRdQv5GDAgFnM3jSujK-11" target="neRdQv5GDAgFnM3jSujK-12" edge="1">
          <mxGeometry relative="1" as="geometry" />
        </mxCell>
      </root>
    </mxGraphModel>
  </diagram>
</mxfile>
